HIERARCHY
ROOT hip
{
	OFFSET 0.000000 0.000000 0.000000 
	CHANNELS 6 Xposition Yposition Zposition Xrotation Zrotation Yrotation
	JOINT abdomen
	{
		OFFSET 0.000000 3.402643 0.000000 
		CHANNELS 3 Xrotation Zrotation Yrotation
		JOINT chest
		{
			OFFSET 0.000000 8.438565 -0.680529 
			CHANNELS 3 Xrotation Zrotation Yrotation
			JOINT neck
			{
				OFFSET 0.000000 10.207942 -0.272212 
				CHANNELS 3 Xrotation Zrotation Yrotation
				JOINT head
				{
					OFFSET 0.000000 3.130431 0.000000 
					CHANNELS 3 Xrotation Zrotation Yrotation
					End Site
					{
						OFFSET 0.000000 3.130435 0.000000 
					}
				}
			}
			JOINT lCollar
			{
				OFFSET 3.470700 6.669187 -0.816635 
				CHANNELS 3 Yrotation Zrotation Xrotation
				JOINT lShldr
				{
					OFFSET 3.198488 0.000000 0.000000 
					CHANNELS 3 Zrotation Yrotation Xrotation
					JOINT lForeArm
					{
						OFFSET 10.139888 0.000000 0.000000 
						CHANNELS 3 Yrotation Zrotation Xrotation
						JOINT lHand
						{
							OFFSET 8.370511 0.000000 0.000000 
							CHANNELS 3 Zrotation Yrotation Xrotation
							End Site
							{
								OFFSET 4.083176 0.000000 0.000000 
							}
						}
					}
				}
			}
			JOINT rCollar
			{
				OFFSET -3.470700 6.669187 -0.816635 
				CHANNELS 3 Yrotation Zrotation Xrotation
				JOINT rShldr
				{
					OFFSET -3.198488 0.000000 0.000000 
					CHANNELS 3 Zrotation Yrotation Xrotation
					JOINT rForeArm
					{
						OFFSET -10.139888 0.000000 0.000000 
						CHANNELS 3 Yrotation Zrotation Xrotation
						JOINT rHand
						{
							OFFSET -8.370511 0.000000 0.000000 
							CHANNELS 3 Zrotation Yrotation Xrotation
							End Site
							{
								OFFSET -4.083176 0.000000 0.000000 
							}
						}
					}
				}
			}
		}
	}
	JOINT lThigh
	{
		OFFSET 5.308129 -1.633274 1.361059 
		CHANNELS 3 Xrotation Zrotation Yrotation
		JOINT lShin
		{
			OFFSET -2.041588 -20.007561 0.000000 
			CHANNELS 3 Xrotation Zrotation Yrotation
			JOINT lFoot
			{
				OFFSET 0.000000 -19.190928 -1.224953 
				CHANNELS 3 Xrotation Yrotation Zrotation
				End Site
				{
					OFFSET 0.000000 -2.449906 4.627600 
				}
			}
		}
	}
	JOINT rThigh
	{
		OFFSET -5.308129 -1.633274 1.361059 
		CHANNELS 3 Xrotation Zrotation Yrotation
		JOINT rShin
		{
			OFFSET 2.041588 -20.007561 0.000000 
			CHANNELS 3 Xrotation Zrotation Yrotation
			JOINT rFoot
			{
				OFFSET 0.000000 -19.190928 -1.224953 
				CHANNELS 3 Xrotation Yrotation Zrotation
				End Site
				{
					OFFSET 0.000000 -2.449906 4.627600 
				}
			}
		}
	}
}
MOTION
Frames: 13
Frame Time: 0.033333
-2.189813 51.316837 5.132370 -10.576172 -1.923828 -3.174156 58.682514 -7.781650 2.056201 -25.703127 7.050782 -2.441406 51.063168 8.107644 2.471410 -80.537109 -8.457030 2.763672 2.000000 -2.000000 0.000000 -85.195313 31.689455 -29.414066 -84.665543 -0.483064 -2.970795 44.970146 12.407402 11.888358 -2.000000 2.000000 0.000000 82.851563 -23.320311 -11.660156 96.577103 -0.135991 -3.260892 -12.472803 -55.462963 3.328876 -16.789280 13.587657 0.561840 66.655685 -2.720685 -4.665059 17.377560 12.949718 -8.545636 -14.851331 -10.203004 -10.958903 37.637875 3.993297 3.007969 28.172207 -8.374317 0.685969 
-4.379616 50.844154 10.264719 -12.333984 -2.080078 -2.363281 57.052731 -12.377259 8.567367 -24.472658 6.503907 -2.871094 51.063168 8.107644 2.471410 -83.740234 -10.009765 4.853516 2.000000 -2.000000 0.000000 -100.175781 37.128906 -57.304688 -81.499763 -0.616167 -2.904405 44.346409 7.944165 5.737833 -2.000000 2.000000 0.000000 83.642578 -6.132813 -2.149479 100.077339 -0.498233 -3.086308 -14.290988 -53.534550 5.352903 -23.464106 14.656309 4.102729 65.420631 -2.662006 -4.668033 10.822771 12.161323 -6.833918 -11.588452 -9.243770 -13.680218 46.236164 3.444306 3.513302 26.291935 -10.537588 -3.426408 
-6.345472 50.347847 15.444117 -13.916016 -2.236328 -1.396484 55.444717 -16.154619 14.011438 -23.417969 6.123047 -3.134766 51.063168 8.107644 2.471410 -86.416016 -11.240233 8.076172 2.000000 -2.000000 0.000000 -105.595703 37.607422 -67.474510 -78.855286 -0.365795 -2.635298 42.846062 6.886652 2.295007 -2.000000 2.000000 0.000000 83.476563 4.443359 2.754665 104.636780 -0.899646 -3.080191 -16.813509 -50.331951 7.201900 -26.996935 14.420452 7.213754 61.353043 -2.640563 -4.425832 6.260443 10.496682 -5.539462 -5.418915 -8.111837 -16.744410 50.992565 3.095565 3.931804 22.556255 -12.187424 -7.140143 
-7.908411 49.930302 20.786793 -15.332031 -2.207031 -0.283203 54.721722 -18.566656 16.796179 -23.242188 6.113282 -2.587891 51.063168 8.107644 2.471410 -88.642578 -11.298827 14.168012 2.000000 -2.000000 0.000000 -99.628906 37.763676 -58.369137 -80.613937 -0.299247 -2.668505 39.735607 9.512758 2.319293 -2.000000 2.000000 0.000000 80.039063 4.521484 3.876953 105.515648 -0.938643 -3.082447 -21.921318 -48.548676 9.373474 -25.139683 10.932995 9.282689 51.029457 -3.782861 -3.946619 8.971195 8.232600 -3.976571 2.470369 -6.211302 -19.349731 51.718678 3.030144 3.968182 22.476053 -14.047404 -10.244027 
-9.247375 49.772747 26.176563 -16.562500 -2.050781 1.123047 56.003223 -19.186310 14.427352 -24.287111 7.011719 -0.693359 51.063168 8.107644 2.471410 -90.683594 -9.199218 26.367188 2.000000 -2.000000 0.000000 -91.826172 36.738281 -44.046890 -84.312897 -0.451558 -2.933510 36.312500 13.913789 3.216218 -2.000000 2.000000 0.000000 74.980469 -2.773438 5.390152 104.461578 -0.869271 -3.097991 -28.062307 -47.690075 12.155488 -20.549143 5.709151 10.400720 38.143982 -4.073991 -3.277869 14.509989 5.556030 -2.311361 10.871503 -4.227220 -21.572981 47.180386 3.417127 3.770826 31.954525 -17.712440 -13.326634 
-10.675305 48.661934 31.311871 -16.367188 -1.533203 2.704817 58.609074 -18.187006 8.663596 -26.191406 8.476563 2.140111 51.063168 8.107644 2.471410 -91.259766 -5.175781 41.639740 2.000000 -2.000000 0.000000 -85.000000 33.769535 -28.085934 -89.048775 -0.138452 -2.932118 32.249546 19.398060 5.178021 -2.000000 2.000000 0.000000 72.333984 -13.066406 7.116932 103.418091 -0.788459 -3.142072 -31.093206 -47.810715 13.377209 -16.215691 3.045130 8.708977 31.960060 -4.410931 -2.834827 14.438209 1.657318 -2.799983 -2.129741 -9.233757 -21.307480 66.093315 1.920109 4.368820 25.048296 -16.616051 -10.668386 
-12.336755 48.567394 36.028629 -15.673827 -0.693359 4.736209 61.015205 -16.477728 2.638135 -27.929688 9.912109 4.738009 51.063168 8.107644 2.471410 -89.462891 -1.601562 51.972389 2.000000 -2.000000 0.000000 -79.736328 29.404295 -13.110440 -94.846382 -0.093489 -3.169417 29.330925 24.420265 8.684376 -2.000000 2.000000 0.000000 74.521484 -26.933592 6.083985 103.590729 -0.580738 -3.012855 -30.092783 -48.815868 13.919847 -13.795074 3.455605 5.558209 39.003845 -4.015234 -3.318588 -2.627179 2.887776 -1.061855 -15.018000 -13.678646 -20.071753 69.045883 1.601407 4.098007 15.125826 -11.525934 -2.276591 
-14.087213 48.252270 40.490929 -16.367186 -0.175781 7.773407 62.186893 -15.505816 -0.408058 -28.281252 10.273438 6.093750 51.063168 8.107644 2.471410 -86.250000 0.166016 54.042969 2.000000 -2.000000 0.000000 -76.904297 23.847658 -1.607378 -100.996788 0.144439 -3.114734 28.275442 27.126003 13.778709 -2.000000 2.000000 0.000000 82.978516 -44.589844 -0.957031 103.953445 -0.548671 -3.059891 -26.703129 -50.652676 13.572782 -13.571645 5.116376 1.751983 48.907192 -3.906811 -3.810461 -5.973775 1.269163 -0.176675 -20.341213 -15.702207 -20.242880 56.066254 2.694962 4.008800 6.402405 -10.758486 5.804253 
-15.805849 48.338932 44.889011 -20.048826 0.136719 12.939477 61.937233 -15.351496 -0.094630 -27.070314 9.033203 5.556642 51.063168 8.107644 2.471410 -83.300781 1.650391 50.800781 2.000000 -2.000000 0.000000 -74.667969 14.707033 10.878907 -110.294266 0.688712 -3.175550 31.229357 23.059916 28.586454 -2.000000 2.000000 0.000000 100.009766 -57.490234 -16.961361 103.427231 -0.478171 -3.094925 -22.386274 -52.526810 12.213148 -9.519457 8.845967 -1.961990 55.350403 -2.554715 -4.066901 -5.738024 -3.237797 1.297892 -19.344646 -17.985523 -24.805635 45.180477 3.495733 3.585943 18.923002 -11.329877 9.323239 
-17.485371 48.323174 49.387291 -24.980465 0.791016 18.779392 60.935997 -15.477359 2.006135 -24.824221 6.855469 3.798828 51.063168 8.107644 2.471410 -80.888672 3.271484 46.455082 2.000000 -2.000000 0.000000 -72.460938 3.125000 20.400923 -121.185509 1.306699 -2.976840 34.942539 13.661819 46.911598 -2.000000 2.000000 0.000000 115.009773 -60.976563 -31.922600 102.196785 -0.429424 -3.092106 -17.896315 -54.279034 9.335896 -5.906590 13.894494 -6.980718 60.620338 -2.301230 -4.389908 1.696787 -5.469357 6.290365 -7.921014 -16.671240 -32.013840 20.231813 4.818133 1.719215 28.864367 -12.553716 9.706432 
-19.176003 47.882000 53.943199 -28.847656 1.992188 22.275730 59.534893 -15.812808 4.905209 -22.060549 4.521484 1.718750 51.063168 8.107644 2.471410 -78.857422 4.843750 44.072266 2.000000 -2.000000 0.000000 -71.093750 -2.714844 16.601563 -126.106316 1.483878 -2.957782 33.171135 12.724382 52.010006 -2.000000 2.000000 0.000000 109.140625 -52.197262 -30.341797 97.629593 -0.081999 -3.179554 -11.837538 -55.728462 2.472614 -1.979295 17.979656 -11.032814 63.619278 -2.252648 -4.602513 9.179161 -4.834018 11.068670 8.595316 -8.737599 -37.815296 -14.799094 4.670098 -1.053381 51.505817 -12.556633 13.981378 
-20.843840 45.487061 58.435581 -31.347654 3.291016 21.895094 58.030460 -16.157743 7.972234 -19.462893 2.529297 -0.166016 51.063168 8.107644 2.471410 -76.708984 5.371093 44.638668 2.000000 -2.000000 0.000000 -78.095703 4.472656 -9.365234 -117.847496 1.147326 -3.026265 20.654148 28.757603 28.398315 -2.000000 2.000000 0.000000 93.964844 -35.429688 -21.812304 91.307922 0.135473 -3.049652 -3.689170 -56.251640 -8.375424 -7.643520 15.680082 -12.932587 72.171730 -1.198573 -4.583862 10.787391 -2.703246 12.585624 -1.019495 -16.819456 -34.202133 19.702517 4.378234 1.744198 38.785007 -12.079108 15.925403 
-22.454973 44.951355 62.743851 -33.359375 4.541016 19.864056 56.267048 -16.388540 10.531772 -17.558594 1.445313 -1.181641 51.063168 8.107644 2.471410 -73.759766 4.589843 46.796875 2.000000 -2.000000 0.000000 -91.757813 9.052734 -48.222656 -103.789391 0.788708 -2.800121 -11.560822 38.255470 -22.091057 -2.000000 2.000000 0.000000 80.693359 -18.876955 -12.382813 88.845329 0.180835 -2.988359 -0.188210 -56.042568 -13.870496 -14.173407 10.290318 -13.078957 76.239029 -1.169707 -4.911125 10.313828 0.439982 7.645045 -3.908294 -19.272388 -30.869846 38.019676 3.782795 2.960820 30.517559 -12.056673 16.697134 
